<svg id="visual" viewBox="0 0 900 600" width="900" height="600" xmlns="http://www.w3.org/2000/svg" xmlns:xlink="http://www.w3.org/1999/xlink" version="1.1"><rect x="0" y="0" width="900" height="600" fill="#002233"></rect><path d="M0 487L21.5 492.5C43 498 86 509 128.8 512.3C171.7 515.7 214.3 511.3 257.2 488.5C300 465.7 343 424.3 385.8 403.3C428.7 382.3 471.3 381.7 514.2 384.8C557 388 600 395 642.8 402C685.7 409 728.3 416 771.2 433.5C814 451 857 479 878.5 493L900 507L900 601L878.5 601C857 601 814 601 771.2 601C728.3 601 685.7 601 642.8 601C600 601 557 601 514.2 601C471.3 601 428.7 601 385.8 601C343 601 300 601 257.2 601C214.3 601 171.7 601 128.8 601C86 601 43 601 21.5 601L0 601Z" fill="#0066FF" stroke-linecap="round" stroke-linejoin="miter"></path></svg>